<?xml version="1.0" encoding="UTF-8"?><svg id="Layer_1" xmlns="http://www.w3.org/2000/svg" viewBox="0 0 218.62 271.52"><defs><style>.cls-1{fill:#fcf7f9;}</style></defs><path class="cls-1" d="M0,149.91c.24-15.39,2.3-30.49,9.69-44.22,10.12-18.79,24.94-32.09,46.31-36.85,11.27-2.51,22.33-1.49,33.1,2.8,5.64,2.25,11.39,4.24,17.06,6.43,3.2,1.24,6.3,1.16,9.48,0,8.28-3.04,16.56-6.11,25.02-8.63,25.26-7.53,55.2,3.08,70.1,24.78,2.06,3,1.74,5.6-1.26,7.78-6.15,4.47-12.01,9.11-16.34,15.57-17.34,25.8-7.43,56.63,13.53,71.2,2.38,1.65,5.08,2.84,7.67,4.17,4.36,2.25,5.06,3.92,3.55,8.66-4.09,12.88-10.29,24.71-17.69,35.96-5.19,7.88-10.66,15.55-17.51,22.06-10.21,9.71-22.16,13.82-36.21,10.32-6.05-1.5-11.69-4.06-17.45-6.38-4.66-1.88-9.68-2.71-14.69-2.51-7.13,.29-13.93,2.02-20.58,4.89-8.66,3.73-17.66,6.78-27.4,5.1-6.25-1.08-11.49-4.29-16.39-8.12-8.45-6.62-14.57-15.26-20.62-23.94C13.57,216.34,4.18,191.25,.87,163.87,.31,159.24-.02,154.58,0,149.91Zm96.75,15.47c-.33-.45-.79-.28-1.17-.28-27.32,0-54.63,.04-81.95,0-1.88,0-2.25,.63-1.96,2.34,1.05,6.16,2.27,12.27,3.9,18.3,6.64,24.61,19,46.08,36.03,64.85,8.42,9.28,18.56,13.55,31.18,8.58,6.64-2.62,13.11-5.76,20.25-7.01,2.04-.36,2.83-1.83,2.82-4.14-.11-24.73-.08-49.46-.11-74.2,0-.96,.22-1.97-.52-3.45-2.68,2.82-5.14,5.5-7.71,8.08-5.63,5.67-11.3,11.3-16.98,16.92-1.73,1.71-3.76,2.16-5.92,.96-2.12-1.18-2.56-3.16-2.1-5.39,.28-1.39,1.38-2.25,2.31-3.18,6.88-6.9,13.78-13.78,20.65-20.68,.49-.49,1.25-.85,1.27-1.7Zm28.33-.34l-.4,.66c1.37,1.3,2.76,2.59,4.1,3.92,6.44,6.4,12.89,12.78,19.28,19.22,2.68,2.7,2.33,6.45-.7,7.98-2.36,1.18-4.31,.36-6.07-1.39-5.95-5.94-11.92-11.86-17.9-17.77-2.32-2.3-4.67-4.57-7.46-7.3,0,1.84,0,2.99,0,4.14,0,10.25,0,20.49,0,30.74,0,14.41-.02,28.82,0,43.23,0,1.05-.5,2.4,1.48,2.46,9.5,.29,18.04,4.12,26.62,7.62,11.24,4.57,22.89,2.42,31.51-6.18,5.74-5.73,10.61-12.16,15.1-18.89,6.4-9.59,11.97-19.6,15.99-30.44,.6-1.62,.5-2.53-1.22-3.28-2.53-1.09-4.78-2.69-6.96-4.37-9.57-7.36-16.22-16.87-20.46-28.08-.7-1.83-1.62-2.32-3.46-2.28-6.08,.11-12.16,.04-18.24,.04-10.4,0-20.8,0-31.2,0Zm-19.48-19.08c.08-.7,.19-1.18,.19-1.66,0-17.74,0-35.47,.04-53.21,0-1.49-.64-2.12-1.94-2.72-6.57-3.03-13.48-5.19-20.2-7.8-9.34-3.63-18.92-3.71-28.46-1.03-15.49,4.35-26.71,14.39-34.77,27.9-8.37,14.03-10.31,29.69-10.2,45.72,.01,2,1.18,1.97,2.61,1.96,15.91-.04,31.81-.04,47.72-.07,.63,0,1.34,.23,1.88-.45-.32-.74-.66-1.5-.97-2.27-3.3-8.2-.85-16.82,6.26-21.99,6.89-5.01,15.57-4.67,22.36,.93,3.34,2.76,6.43,5.79,9.48,8.87,1.9,1.92,3.89,3.77,6.01,5.81Zm10.35-.43c.25,.17,.5,.33,.75,.5,.79-.93,1.53-1.91,2.39-2.78,4.31-4.4,8.64-8.78,13.35-12.77,7.43-6.3,18.67-5.54,25.21,1.7,5.12,5.66,6.16,13.56,2.52,20.69-.98,1.93-.49,2.21,1.38,2.16,3.66-.09,7.33-.11,10.99,0,1.69,.05,2.17-.46,1.95-2.12-.56-4.31-.54-8.63-.02-12.95,2.05-17.1,9.63-31.15,23.28-41.75,1.68-1.3,1.64-1.98,.27-3.38-15.95-16.26-34.95-21.08-56.69-14.86-7.83,2.24-15.4,5.37-23.13,7.96-1.72,.57-2.3,1.33-2.29,3.14,.07,14.99,.04,29.98,.04,44.97,0,3.16,0,6.32,0,9.48Zm6.37,7.25c.24,.23,.48,.46,.72,.69,7.55,0,15.1,.12,22.65-.06,3.14-.07,5.93-3.27,6.83-7.07,.84-3.57-.45-7.02-3.36-8.98-3.13-2.12-7.21-2.32-9.81-.23-2.46,1.98-4.73,4.18-7.05,6.32-3.34,3.09-6.65,6.22-9.97,9.33Zm-23.01,1.53c-4.92-5.88-9.87-11.27-15.53-15.93-3.07-2.53-6.66-2.76-9.94-.67-3.53,2.25-5.02,6.05-3.88,9.92,1.25,4.23,4.03,6.63,7.95,6.67,4.91,.06,9.83,.01,14.74,.01,2.22,0,4.44,0,6.66,0Z"/><path class="cls-1" d="M104.96,56.75c.98-20.4,10.24-36.14,27.02-47.54,7.42-5.04,15.62-8.15,24.59-9.1,5.24-.56,7.33,1.13,7.49,6.41,.57,18.72-6.42,34.31-20.11,46.84-8.95,8.19-19.53,12.89-31.86,13.1-5.22,.09-6.92-1.5-7.12-6.71-.04-1,0-2,0-3Zm10.11-3.09c-.4,1.98,.41,2.38,2.19,2.05,3.37-.63,6.68-1.43,9.73-3.04,15.83-8.4,24.55-21.67,26.91-39.31,.27-2.03-.24-2.46-2.22-1.92-6.84,1.89-12.89,5.12-18.41,9.59-10.49,8.49-16.39,19.42-18.2,32.63Z"/></svg>